<svg viewBox="0 0 24 28" xmlns="http://www.w3.org/2000/svg" xml:space="preserve" fill-rule="evenodd" clip-rule="evenodd" stroke-linejoin="round" stroke-miterlimit="2"><path d="m4.50059482.00042938 4.49913246 2.59811103v5.19622206L4.50059482 10.3928735.00001009 7.79476247V2.59854041L4.50059482.00042938Zm9.99999 0 4.49913246 2.59811103v5.19622206l-4.49913246 2.59811103-4.50058473-2.59811103V2.59854041L14.50058482.00042938Z" fill-opacity=".3"/><path d="m9.50059482 8.66065938 4.49913246 2.59811103v5.19622206L9.50059482 19.0531035l-4.50058473-2.59811103v-5.19622206l4.50058473-2.59811103Z" fill-opacity=".6"/><path d="m19.50058282 8.66065938 4.49913246 2.59811103v5.19622206l-4.49913246 2.59811103-4.50058473-2.59811103v-5.19622206l4.50058473-2.59811103Zm-4.999998 8.66025 4.49913246 2.59811103v5.19622206l-4.49913246 2.59811103-4.50058473-2.59811103v-5.19622206l4.50058473-2.59811103Z" fill-opacity=".9"/><path d="m4.50059482 17.32090938 4.49913246 2.59811103v5.19622206L4.50059482 27.7133535.00001009 25.11524247v-5.19622206l4.50058473-2.59811103Z" fill-opacity=".6"/></svg>