<svg viewBox="0 0 12 10" xmlns="http://www.w3.org/2000/svg"><path d="M9.46 0 1.7 4.65l1.54 4.24h4.51L9.46 0 12 7.02 9.68 10H2.46L0 3.22 2 0h7.46ZM7.2 6.37c-.21.3-.43.55-.65.75-.22.2-.44.34-.66.4-.23.08-.46.09-.7.04-.24-.05-.5-.17-.77-.36a2.13 2.13 0 0 1-.6-.6c-.13-.21-.2-.44-.2-.67-.01-.24.04-.5.15-.76a4.48 4.48 0 0 1 1.12-1.6c.22-.2.44-.33.67-.4.23-.08.46-.1.7-.04.25.06.5.18.76.36.27.19.47.39.6.6.13.21.2.44.2.68.01.24-.04.49-.15.75-.1.27-.26.55-.47.85Zm-.93-.65c.3-.43.48-.76.52-1a.53.53 0 0 0-.23-.57.53.53 0 0 0-.61-.02c-.22.12-.47.4-.78.83-.3.42-.46.76-.5 1-.05.25.02.44.21.58.2.14.4.14.62.01.22-.12.47-.4.77-.83Z"/></svg>