<svg viewBox="0 0 512 512" xmlns="http://www.w3.org/2000/svg"><path d="m359.05 45.9-12.62 359.56 87 11.82L496 299.5z"/><path d="M168.64 419.61 146.3 466.1l287.12-48.82-82.05-14.4zM359.05 45.9 74.68 273.67 16 206.31l51.35-123.6z"/><path d="M168.64 419.61 146.3 466.1 16 206.3l58.32 62.51z"/><g style="line-height:1.25" font-size="46.88" stroke-width="1.95"><path d="M102.94 90.96q0 4.3-.78 7.71-.78 3.4-2.43 5.57-1.7 2.22-4.35 3.36-2.65 1.12-6.54 1.12-3.83 0-6.53-1.14-2.7-1.15-4.37-3.39-1.7-2.24-2.45-5.56-.75-3.34-.75-7.65 0-4.44.78-7.71.77-3.27 2.47-5.54 1.7-2.24 4.4-3.36 2.7-1.12 6.45-1.12 3.91 0 6.57 1.16 2.65 1.15 4.34 3.44 1.67 2.24 2.43 5.53.76 3.28.76 7.58zm-8.86 0q0-6.18-1.22-8.79-1.2-2.63-4.02-2.63-2.82 0-4.03 2.63-1.22 2.61-1.22 8.84 0 6.06 1.24 8.74 1.24 2.68 4 2.68 2.78 0 4.01-2.68 1.24-2.68 1.24-8.79z" style="-inkscape-font-specification:'sans-serif Bold'" font-weight="700" transform="rotate(25.66 773.38 -77.87) scale(5.04612)" aria-label="0"/></g></svg>