<svg width="32" height="32" viewBox="0 0 32 32" xmlns="http://www.w3.org/2000/svg" xml:space="preserve" fill-rule="evenodd" clip-rule="evenodd" stroke-linejoin="round" stroke-miterlimit="2"><path d="m23.071 23.071-4.339-2.364.45-1.525 1.525-.45 2.364 4.339ZM12.82 19.182l.45 1.525-4.34 2.364 2.276-4.365 1.614.476Zm7.888-5.914-1.526-.449-.449-1.526 4.34-2.364-2.365 4.339Zm-7.439-1.975-.449 1.526-1.525.449L8.93 8.929l4.338 2.364Z" fill="#888"/><path d="M18.276 18.276 26 16l-7.724-2.275L16 6l-2.275 7.725L6 16l7.725 2.276L16 26l2.276-7.724Z" fill="#888" fill-rule="nonzero"/><path d="M16 1 3.01 8.5v15L16 31l12.99-7.5v-15L16 1Zm0 1.3 11.866 6.85v13.7L16 29.702l-11.865-6.85V9.15L16 2.3Z" fill="#888"/></svg>
