<svg viewBox="0 0 512 512" xmlns="http://www.w3.org/2000/svg" xml:space="preserve" fill-rule="evenodd" clip-rule="evenodd" stroke-linejoin="round" stroke-miterlimit="2"><path d="M256 0c141.29 0 256 114.71 256 256 0 141.29-114.71 256-256 256C114.71 512 0 397.29 0 256 0 114.71 114.71 0 256 0Zm0 25C128.443 25 25 128.396 25 255.953c0 115.798 85.174 211.635 196.27 228.399V299.293l69.46-.14v185.199C401.826 467.588 487 371.751 487 255.953 487 128.396 383.557 25 256 25Zm113.651 268.821c-12.168-11.526-37.32-19.412-66.345-19.412-11.211 0-21.827 1.19-31.358 3.325v.14h-31.896v-.14c-9.531-2.135-20.147-3.325-31.358-3.325-29.025 0-54.177 7.886-66.345 19.412l-8.341-25.198 92.465-37.052 8.843-121.805c-5.016-4.013-8.166-9.485-8.166-15.539 0-12.168 12.576-22.014 28.08-22.014 15.493 0 28.022 9.846 28.022 22.014 0 6.054-3.103 11.526-8.155 15.539l8.843 121.175 94.052 37.682-8.341 25.198Z" fill="#fff"/></svg>