<svg viewBox="0 0 512 512" xmlns="http://www.w3.org/2000/svg" xml:space="preserve" fill-rule="evenodd" clip-rule="evenodd" stroke-linejoin="round" stroke-miterlimit="2"><path d="M256 16c132.46 0 240 107.54 240 240 0 132.46-107.54 240-240 240-132.46 0-240-107.54-240-240C16 123.54 123.54 16 256 16Zm22.05 453.88C386.36 458.83 471 367.22 471 256c0-118.66-96.34-215-215-215S41 137.34 41 256c0 111.22 84.64 202.83 192.95 213.88v-52.8h44.1v52.8Zm28.28-73.98a24.82 24.82 0 0 1-7.1 10.63h-87.02c-.9-.56-3.84-2.86-6.2-9.14-2.34-6.15-.93-13.63-.25-16.57h100.13c.82 2.64 2.44 9.35.44 15.08ZM387.46 292c-10.47 24.17-42.77 67.92-68.1 79.67.64-1.71 2.4-5.6 2.73-7.26 1.03-4.7-2.13-12.26-5.47-20.3 15.94-7.08 28.93-19.74 34.05-28.88l1.45-2.52c.99-2.48 3.46-8.42 2.7-9.7l-7.7 4.02c-2.26.73-5.37 1.76-9 1.76-4.45 0-8.51-1.5-12.44-4.58-14.32-11.28 2.82-41.83 9.27-53.31l2.43-4.37-3.84.05c-14.74 0-25.89-3.63-29.82-9.62-15.34-23.4-14.19-58.9-13.41-82.45l.2-7-3.36 5.97c-4.45 7.87-8.94 17.82-13.67 28.37-12.1 26.87-25.77 57.33-41.7 57.33-6.88 0-14.1-5.85-21.5-17.38l-2.6-4.1-.47 4.96c-2.3 10.63-4.57 24.39-15.21 34.18-3.68 3.37-10.55 4.82-17.98 4.05l-15.43-5.17 1.42 6.97c3.03 34.09 11.27 58.1 33.49 81.69 0-.05 0-.1.04-.13l.43.67c-.18-.2-.3-.38-.47-.55a53.92 53.92 0 0 0-4.06 17.38c-.13 2.66 1.5 7.49 1.92 9.75-23.84-25-65.32-86.8-72.03-129.32-2.82-18-.47-32.85 7.05-44.26 1.07 17.68 7.3 28.46 16.8 28.46 13.32 0 34.76-24.15 52.24-91.64 8.76 24.3 17.86 36.6 27.21 36.6 6.5-.04 12.48-5.76 17.82-17.13 12.6-26.74 26.74-59.81 18.75-84.6 37.64 30.6 86.86 98.28 71.6 138.26l3.94-1.97c11.96-10.58 19.82-17.55 30.54-58.56 11.84 43.83 17.9 90.22-9.4 134.53l-1.62 2.7 2.9.24c.6.05 1.2.09 1.8.09 9.1 0 20.26-5.9 33.1-17.48 1.25 6.3-.33 14.7-4.6 24.58Zm-77.45 68.43c-.87 3.8-3.2 8.42-4.28 10.35H204.99c-1.03-1.84-3.34-6.54-3.07-12.14.3-5.77 2.35-11.32 3.25-13.59h100.47c2.22 4.7 5 12.22 4.37 15.38Zm-4.8-25.46h-100.9c-1.07-1.66-3.38-5.98-3-10.63.39-4.66 2.14-7.01 2.87-7.82l101.12-14.45c1.58 2.44 5.64 9.5 5.43 16.88-.22 7.48-4.1 13.93-5.51 16.02Zm3-42.94-100.7 14.4c-1.8-2.52-6.75-10.3-6.24-17.47.52-7.3 4.8-13.5 6.28-15.47h100.83c.8 1.8 2.44 5.6 2.4 8.72-.1 3.34-1.76 7.9-2.58 9.82Z" fill="#fff"/></svg>