<svg width="32" height="32" viewBox="0 0 32 32" xmlns="http://www.w3.org/2000/svg" xml:space="preserve" fill-rule="evenodd" clip-rule="evenodd" stroke-linejoin="round" stroke-miterlimit="2"><path d="M13.914 30V18.603l4.173-.008V30h-4.173Zm8.913-11.725c-.731-.693-2.24-1.168-3.985-1.168-.674 0-1.312.072-1.885.2v.008h-1.913v-.009a8.724 8.724 0 0 0-1.886-.199c-1.744 0-3.253.475-3.984 1.168l-.5-1.514 5.552-2.226.532-7.318c-.302-.24-.49-.57-.49-.933 0-.73.754-1.323 1.685-1.323.93 0 1.685.593 1.685 1.323 0 .364-.187.693-.49.933l.529 7.28 5.65 2.264-.5 1.514Z" fill="#888"/><path d="M16 1c8.279 0 15.001 6.721 15.001 15S24.279 31 16 31 1 24.279 1 16 7.721 1 16 1Zm0 1.125c7.658 0 13.876 6.218 13.876 13.875S23.658 29.875 16 29.875C8.343 29.875 2.125 23.657 2.125 16S8.343 2.125 16 2.125Z" fill="#888"/></svg>
