<svg viewBox="0 0 512 512" xmlns="http://www.w3.org/2000/svg" xml:space="preserve" fill-rule="evenodd" clip-rule="evenodd" stroke-linejoin="round" stroke-miterlimit="2"><path d="M256 0 34.3 128v256L256 512l221.7-128V128L256 0Zm0 28.9 196.7 113.5v227.2L256 483 59.3 369.6V142.4L256 29Zm39.8 267L431 256l-135.2-39.8L256 81l-39.8 135.2L81 256l135.2 39.8L256 431l39.8-135.2Zm-86 6.4 8.9 30.3-86.4 47.1 47-86.4 30.4 9Zm170 77.4-86.5-47 9-30.4 30.4-9 47 86.4Zm-47.2-161-30.3-9-9-30.3 86.4-47.1-47 86.4Zm-114-39.3-8.9 30.3-30.3 9-47.1-86.4 86.4 47Z" fill="#fff"/></svg>