<svg viewBox="0 0 32 32" xmlns="http://www.w3.org/2000/svg" xml:space="preserve" fill-rule="evenodd" clip-rule="evenodd" stroke-linejoin="round" stroke-miterlimit="2"><path d="M24.423 18.248c-.672 1.548-2.74 4.351-4.364 5.105.042-.11.154-.36.175-.466.066-.301-.136-.785-.35-1.3 1.021-.454 1.853-1.265 2.181-1.85l.094-.162c.063-.16.221-.54.172-.622l-.493.258c-.145.046-.344.112-.577.112a1.26 1.26 0 0 1-.797-.293c-.917-.723.181-2.68.594-3.416l.156-.28-.246.004c-.945 0-1.659-.233-1.91-.616-.983-1.5-.91-3.774-.86-5.283l.013-.448-.215.382c-.286.504-.573 1.142-.876 1.818-.775 1.721-1.651 3.673-2.672 3.673-.44 0-.903-.375-1.377-1.113l-.167-.263-.03.317c-.148.681-.293 1.563-.975 2.19-.235.216-.675.309-1.152.26l-.988-.332.09.447c.195 2.184.723 3.722 2.146 5.234 0-.003 0-.006.003-.009l.027.044a.172.172 0 0 0-.03-.035c-.09.215-.238.645-.26 1.113-.008.17.096.48.124.624-1.528-1.6-4.186-5.561-4.615-8.285-.181-1.153-.03-2.105.451-2.836.069 1.133.468 1.823 1.076 1.823.854 0 2.228-1.547 3.348-5.87.56 1.556 1.144 2.344 1.743 2.344.416-.002.8-.369 1.142-1.097.807-1.713 1.713-3.832 1.201-5.42 2.411 1.96 5.565 6.296 4.588 8.858l.251-.126c.767-.679 1.27-1.125 1.958-3.753.758 2.809 1.147 5.781-.602 8.62l-.105.172.187.016c.038.003.076.006.115.006.583 0 1.297-.378 2.12-1.12.08.403-.021.942-.294 1.575Zm-5.079.002-6.451.923c-.115-.162-.432-.66-.4-1.12.033-.468.307-.865.403-.99h6.46c.052.114.156.358.153.558-.005.213-.112.506-.165.629Zm-.19 2.75h-6.466c-.068-.106-.216-.382-.192-.68.025-.299.137-.45.184-.501l6.479-.926c.1.156.36.608.347 1.081-.014.48-.262.893-.353 1.027Zm.306 1.632c-.055.244-.205.54-.274.663h-6.454a1.507 1.507 0 0 1-.197-.778 2.89 2.89 0 0 1 .208-.87h6.438c.142.301.32.783.28.985Zm-.235 2.273a1.59 1.59 0 0 1-.455.68h-5.576c-.057-.035-.246-.183-.396-.585-.151-.394-.06-.873-.017-1.062h6.416c.052.17.156.6.028.967ZM17.413 30h-2.826v-3.738l2.826-.003V30Z" fill="#fff" fill-rule="nonzero"/><path d="M16 1c8.279 0 15 6.721 15 15s-6.721 15-15 15S1 24.279 1 16 7.721 1 16 1Zm0 1.125c7.658 0 13.875 6.217 13.875 13.875S23.658 29.875 16 29.875 2.125 23.658 2.125 16 8.342 2.125 16 2.125Z" fill="#fff"/></svg>