<svg viewBox="0 0 512 512" xmlns="http://www.w3.org/2000/svg" xml:space="preserve" fill-rule="evenodd" clip-rule="evenodd" stroke-linejoin="round" stroke-miterlimit="2"><path d="M256 16 48.2 136v240L256 496l207.8-120V136L256 16Zm0 28.9 182.8 105.5v211.2L256 467 73.2 361.6V150.4L256 45Zm37.3 248.3L420 256l-126.7-37.2L256 92.6l-37.3 126.2L91.9 256l126.8 37.2L256 419.4l37.3-126.2Zm-89.1 14.5 7.4 25-71.6 38.9 39-71.3 25.2 7.4ZM372 371.5l-71.6-38.8 7.4-25 25.2-7.4 39 71.2Zm-39-159.8-25.2-7.4-7.4-25 71.6-38.8-39 71.2Zm-121.4-32.4-7.4 25-25.2 7.4-39-71.3 71.6 39Z" fill="#fff"/></svg>