<svg viewBox="0 0 512 512" xmlns="http://www.w3.org/2000/svg" xml:space="preserve" fill-rule="evenodd" clip-rule="evenodd" stroke-linejoin="round" stroke-miterlimit="2"><path d="M256 16c132.46 0 240 107.54 240 240 0 132.46-107.54 240-240 240-132.46 0-240-107.54-240-240C16 123.54 123.54 16 256 16Zm0 23.44c-119.58 0-216.56 96.93-216.56 216.52 0 108.56 79.85 198.4 184 214.12v-173.5l65.12-.12v173.62c104.15-15.72 184-105.56 184-214.12 0-119.59-96.98-216.52-216.56-216.52Zm106.55 252.02c-11.41-10.8-34.99-18.2-62.2-18.2-10.51 0-20.46 1.11-29.4 3.12v.13h-29.9v-.13c-8.94-2-18.89-3.12-29.4-3.12-27.21 0-50.79 7.4-62.2 18.2l-7.82-23.63 86.69-34.73 8.29-114.2c-4.7-3.76-7.66-8.89-7.66-14.56 0-11.41 11.8-20.64 26.33-20.64 14.52 0 26.27 9.23 26.27 20.64 0 5.67-2.91 10.8-7.65 14.57l8.3 113.6 88.17 35.32-7.82 23.63Z" fill="#fff"/></svg>