<svg style="height:512px;width:512px" xmlns="http://www.w3.org/2000/svg" viewBox="0 0 512 512"><path d="M95 85.6c35.4-.1 80.7 9.8 129.5 29a148 148 0 0 1 167.8 97c80.3 64.2 123.4 133.9 100.7 173.3-23.3 40.5-109.4 36.6-208.6-4.2l-5-2.2-2-.7-5.4-2.4-1.6-.7-4.3-2a645.9 645.9 0 0 1-105-59.2l-1.2-.8-2-1.4C57.5 241.3-.2 158.5 25.3 114.1c11-19.1 36-28.3 69.6-28.5zm56.3 50c-24.5-.4-42.6 5.9-50.4 19.5-8.4 14.5-3.6 35.1 11.2 57.9a149.4 149.4 0 0 1 57.9-76c-6.6-.8-12.8-1.3-18.7-1.4zm249 134.4a148.1 148.1 0 0 1-37 89c27.6 1.8 48.2-4.3 56.7-19 9.9-17.1 1.6-42.5-19.8-70zM109 297.6a644.8 644.8 0 0 0 88 60.7 639.4 639.4 0 0 0 94.7 45.3 148 148 0 0 1-182.6-106z" fill="#fff"/></svg>