<svg id="Layer_1" data-name="Layer 1" xmlns="http://www.w3.org/2000/svg" viewBox="0 0 128 128"><defs><style>.cls-1{fill:#42abe0;}</style></defs><title>Derelict Settlement Deep Space</title><path class="cls-1" d="M98.41,72.51c-.6-2.61-1.25-5.18-1.93-7.65-2.26-8.23-4.88-15.39-7.81-19.47-.24-.33-.47-.63-.71-.92a2.68,2.68,0,0,0-.23-.26,2.52,2.52,0,0,0-.21-.25c-.26-.3-.52-.59-.79-.87a30.07,30.07,0,0,0-4.35-3.83,30.74,30.74,0,0,0-6.11-3.44v2.44L71.86,39.8,67.14,35l-1.37,3.28L64,35l-3.35,2-1.82-3.12a29.65,29.65,0,0,0-5.11,1.36c-.66.23-1.31.5-1.95.78s-1.25.57-1.86.89a29.42,29.42,0,0,0-3.9,2.43c-.53.39-1.06.8-1.58,1.23s-1,.88-1.5,1.33a29.28,29.28,0,0,0-2.73,3c-.44.53-.85,1.08-1.24,1.64s-.78,1.15-1.14,1.75a31,31,0,0,0-1.44,29.39,31.33,31.33,0,0,0,3,5l.71.93a2.52,2.52,0,0,0,.21.25h0l.22.27c.24.28.49.57.78.85,3.48,3.61,10,7.47,17.76,11.17,2.31,1.11,4.72,2.2,7.18,3.26,2.79,1.21,5.62,2.39,8.44,3.51L74,98.08l4.45,3.67,1.19-6.6,5,1.12-1.06-4.7,4.23.93-.93-5.21,5.83,3.28,1.16-5.9,7-.52C100.14,80.29,99.32,76.35,98.41,72.51ZM78.47,81.28a22.37,22.37,0,0,1-11.18,5L64,88.2l-1.59,4-2.74-4H54.82l-1.1-2.87-4.1.62,1.05-3.84a22.27,22.27,0,0,1-3.83-3.58l-.19-.23a22.51,22.51,0,0,1,34.6-28.81l.07.08A22.51,22.51,0,0,1,78.47,81.28Z"/><rect class="cls-1" x="45.71" y="23.45" width="4" height="15.33" transform="translate(-8.85 37.81) rotate(-39.86)"/><rect class="cls-1" x="34.75" y="38.84" width="4" height="9.91" transform="translate(-19.53 33.74) rotate(-39.87)"/><rect class="cls-1" x="77.76" y="38.26" width="30.61" height="3" transform="translate(-3.85 68.92) rotate(-39.88)"/><polygon class="cls-1" points="119.57 42.94 116.06 43.8 114.99 46.81 104.53 34.29 109.14 30.45 119.57 42.94"/><polygon class="cls-1" points="107.44 46.72 108.43 50.72 105.52 49.81 97.48 40.18 102.08 36.34 108.92 44.53 107.44 46.72"/><polygon class="cls-1" points="102.25 50.88 101.77 54.03 98.04 52.4 97.73 54.82 90.42 46.07 95.03 42.23 102.25 50.88"/><rect class="cls-1" x="93.59" y="10.42" width="6" height="19.36" transform="translate(9.57 66.58) rotate(-39.86)"/><rect class="cls-1" x="86.53" y="16.31" width="6" height="19.36" transform="translate(4.15 63.43) rotate(-39.86)"/><rect class="cls-1" x="79.48" y="22.2" width="6" height="19.36" transform="translate(-1.26 60.28) rotate(-39.86)"/><rect class="cls-1" x="19.71" y="86.74" width="30.61" height="3" transform="translate(-48.43 42.97) rotate(-39.88)"/><polygon class="cls-1" points="23.55 93.7 18.94 97.55 8.43 84.97 8.83 83.85 12.95 82.31 12.95 81.01 23.55 93.7"/><polygon class="cls-1" points="30.6 87.81 25.99 91.66 13.88 77.16 19.4 76.42 19.4 74.4 30.6 87.81"/><rect class="cls-1" x="26.15" y="66.74" width="6" height="19.36" transform="translate(-42.21 36.45) rotate(-39.87)"/><rect class="cls-1" x="28.49" y="98.22" width="6" height="19.36" transform="translate(-61.84 45.26) rotate(-39.86)"/><rect class="cls-1" x="35.54" y="92.33" width="6" height="19.36" transform="translate(-56.43 48.42) rotate(-39.86)"/><rect class="cls-1" x="42.6" y="86.44" width="6" height="19.36" transform="translate(-51.01 51.57) rotate(-39.87)"/><rect class="cls-1" x="37.14" y="23.38" width="4" height="21.6" transform="translate(-12.81 33.03) rotate(-39.86)"/></svg>