<svg id="Layer_1" data-name="Layer 1" xmlns="http://www.w3.org/2000/svg" viewBox="0 0 128 128"><defs><style>.cls-1{fill:#42abe0;}</style></defs><title>Derelict Settlement Planetside</title><path class="cls-1" d="M102.48,69.72l1.34,2.39,1.83,3.31c5.95,3.08,9.27,6.7,9.27,10.23,0,8.76-20.46,18.14-50.92,18.14S13.08,94.41,13.08,85.65c0-4,4.21-8.07,11.64-11.35q-.86-1.85-1.62-3.57c-8.75,3.91-14,9.12-14,14.92,0,12.41,24.12,22.14,54.92,22.14s54.92-9.73,54.92-22.14C118.92,79.34,112.68,73.72,102.48,69.72Z"/><path class="cls-1" d="M108.58,85.15c-1.75.08-4.72.2-8.48.31-1.61,0-3.35.09-5.22.12-2.65,0-5.54.07-8.56.07-4.06,0-8.36-.05-12.69-.19l.6-6.39,7.33-1.5-2.9-6.18,13.45-6.71-3.38-8.27,2.54-1.68c4,6.42,7.76,12.91,10.8,18.35q1.37,2.44,2.52,4.58C106.39,81,107.77,83.59,108.58,85.15Z"/><path class="cls-1" d="M50.3,20.21A30.91,30.91,0,0,0,19.42,51.09c0,7.61,6.22,21.4,13.17,34.41l5.84-2.65,5,5.6,3.91-5.6,12.52,8.3,5.48-7L68,85.47C75,72.47,81.18,58.7,81.18,51.09A30.91,30.91,0,0,0,50.3,20.21Zm0,53A22.51,22.51,0,1,1,72.82,50.74,22.52,22.52,0,0,1,50.3,73.25Z"/></svg>