<svg id="Layer_1" data-name="Layer 1" xmlns="http://www.w3.org/2000/svg" viewBox="0 0 128 128"><defs><style>.cls-1{fill:#42abe0;}.cls-2{fill:none;stroke:#42abe0;stroke-linecap:round;stroke-miterlimit:10;stroke-width:3px;}</style></defs><title>Derelict Settlement Orbital</title><path class="cls-1" d="M117.44,57.41a2.93,2.93,0,0,0,0-.41v-.08a4.17,4.17,0,0,0-.08-.51.12.12,0,0,0,0-.08,2.56,2.56,0,0,0,0-.27,6.25,6.25,0,0,0-.17-.72,7.58,7.58,0,0,0-.26-.76C114,47.31,102.49,45.83,88.1,48a33.08,33.08,0,0,1,3.24,6.16c11.13-1.38,18.29-.06,19.42,2.8a2,2,0,0,1,.07.23,1.84,1.84,0,0,1,0,.25.88.88,0,0,1,0,.24,2.44,2.44,0,0,1,0,.54c0,.13,0,.27,0,.41a1.32,1.32,0,0,1-.07.32,1,1,0,0,1-.05.16c0,.11-.06.21-.1.32a1.1,1.1,0,0,1-.12.33,2,2,0,0,1-.08.22l0,.06,0,.06a1.07,1.07,0,0,1-.09.19s0,0,0,0-.16.32-.24.48a3.35,3.35,0,0,1-.21.36,3.85,3.85,0,0,1-.23.38c-.15.25-.32.51-.52.78l-.29.4q-.6.81-1.38,1.68a5.31,5.31,0,0,1-.4.44l-.41.45-.21.2-.6.61q-.73.73-1.59,1.5l-.54.48-.56.49-.53.43-.31.27c-.71.59-1.47,1.18-2.27,1.79l-.82.61-.55.41-1,.73-.44.3q-1.87,1.31-4,2.63l-.86.53-.87.53c-.18.12-.37.23-.56.34l-.5.29-1,.6-1.59.9-1.45.8c-.82.44-1.66.89-2.52,1.33l-.27.13-.66.34c-.46.24-.92.47-1.4.7l-.64.31-.69.34c-1.2.58-2.45,1.16-3.72,1.72l-1.64.73-3.39,1.44-.11,0-2.38,1-2.39.92-.74.28-1.26.47-.68.24c-.88.32-1.76.62-2.63.91l-1.63.54-1.49.47L56.78,92c-1.29.39-2.55.76-3.78,1.1l-.71.19c-1.3.35-2.58.68-3.82,1-1,.24-2,.46-2.92.67l-1.31.27L43,95.48l-1,.19-1,.18c-.66.11-1.31.22-1.94.31l-.42.06-1.89.26-.93.1-.92.1-1.61.15-.82.06c-.18,0-.36,0-.54,0l-.41,0-.54,0-.81,0-.7,0h-.88c-.79,0-1.54,0-2.26-.06l-1.1-.07H25l-.13,0c-.7-.07-1.36-.15-2-.26-.43-.07-.83-.16-1.22-.25l-.12,0-.12,0-.24-.06L21,96.19c-.24-.07-.48-.14-.7-.22a2.85,2.85,0,0,1-.31-.12l-.07,0a3.17,3.17,0,0,1-.37-.15s0,0-.05,0a4,4,0,0,1-.55-.27l-.36-.21a.94.94,0,0,1-.12-.09.65.65,0,0,1-.15-.1,2.75,2.75,0,0,1-.26-.22,2.1,2.1,0,0,1-.33-.34,1.26,1.26,0,0,1-.27-.36,1.48,1.48,0,0,1-.2-.37h0c-1.11-2.86,3.24-8.7,12.33-15.26a32.77,32.77,0,0,1-1.82-6.71c-12,8.19-19.44,17.09-16.6,24.36h0c.08.21.17.41.26.6a4.11,4.11,0,0,0,.27.51l.06.11c.1.17.21.34.32.5s.25.35.38.52a.53.53,0,0,0,.12.14l.08.09.06.08a6.29,6.29,0,0,0,.43.47l.5.47a9.59,9.59,0,0,0,1.18.89l.64.4a13.84,13.84,0,0,0,1.44.73c.25.11.51.22.78.32s.43.16.66.23.73.24,1.12.34.52.15.79.21l.91.2,1,.19.6.09a39.42,39.42,0,0,0,5.18.39h1.64c.93,0,1.89,0,2.88-.11q.45,0,.9-.06l.59,0,.76-.06c.63-.06,1.27-.12,1.93-.2l2.37-.31,1.2-.18.62-.09,1.54-.26L44,102c.55-.11,1.1-.21,1.65-.33l1.51-.32.74-.16c.79-.18,1.58-.36,2.39-.56l1.09-.26.29-.08,1.6-.42,1.18-.32c.54-.14,1.07-.29,1.6-.45l1.2-.34.35-.1.54-.16.51-.16c2.82-.86,5.65-1.81,8.47-2.83L68.48,95c.93-.35,1.87-.7,2.8-1.07q3.38-1.32,6.68-2.79c1-.44,2-.9,3-1.36l3-1.4c1-.48,1.94-1,2.89-1.46s1.89-1,2.82-1.49l.66-.35.35-.2q2-1.1,3.91-2.24c.62-.37,1.22-.74,1.81-1.11s1-.6,1.44-.91c.76-.48,1.5-1,2.22-1.46q2.17-1.47,4.13-3c.31-.24.61-.47.9-.71l.59-.46,0,0,.54-.45,1.12-.94c.19-.15.37-.31.54-.47l.52-.47a6.14,6.14,0,0,0,.47-.42l.93-.87c.63-.61,1.22-1.21,1.77-1.81.35-.38.68-.76,1-1.14l.56-.67q.54-.67,1-1.35l.4-.57c.15-.22.3-.44.44-.67a18,18,0,0,0,1.29-2.38c.09-.2.17-.4.25-.6a11.74,11.74,0,0,0,.73-2.45c0-.14,0-.28.07-.42l.06-.43c0-.15,0-.3,0-.46a2.28,2.28,0,0,0,0-.26v-.46A2.09,2.09,0,0,0,117.44,57.41Z"/><path class="cls-1" d="M91,64.75a32.53,32.53,0,0,0-1.71-9.62c-.08-.22-.16-.42-.26-.63a30.76,30.76,0,0,0-3.38-6.09c-.45-.63-.92-1.23-1.42-1.82l-5.72,2.56-2.25-5.58-3.62,1L68.48,38l-3.23,1.34-.52-3.54a31.12,31.12,0,0,0-5-.29,29,29,0,0,0-4.14.39A29.62,29.62,0,0,0,51.1,37c-.63.2-1.26.42-1.89.67s-1.24.51-1.83.79h0a30.88,30.88,0,0,0-3.53,1.95,27.78,27.78,0,0,0-3.33,2.46,30.81,30.81,0,0,0-9,34.19c.07.22.15.42.23.64a33.07,33.07,0,0,0,5.3,8.21,112.22,112.22,0,0,0,8.49,9h0c1.84,1.78,3.77,3.58,5.77,5.36h0c3.24,2.91,6.61,5.79,9.94,8.53l.73-2.15,8.84-1,2.21-7.28,6.11,6,4.35-8.22,1.22,3.1,2.67-4.42,1.72.85c.45-3.52.86-7.12,1.17-10.66h0c.26-2.67.45-5.3.59-7.86h0A112.34,112.34,0,0,0,91,64.75ZM39.41,74.32A22.52,22.52,0,0,1,81.33,57.86a22.29,22.29,0,0,1,1.55,9l4.28,2.69-3.32,2.21,1.46,6.1-4.51,0-2.24,4.55-1.72-1a22.52,22.52,0,0,1-37.42-7.14Z"/><rect class="cls-1" x="44.18" y="19.13" width="4" height="21.6" transform="translate(-7.74 18.95) rotate(-21.44)"/><rect class="cls-1" x="53.28" y="22.06" width="4" height="15.33" transform="translate(-7.04 22.26) rotate(-21.44)"/><rect class="cls-1" x="38.87" y="33.34" width="4" height="9.91" transform="translate(-11.17 17.58) rotate(-21.44)"/><path class="cls-1" d="M71.28,93.88C45,104.19,15.94,108.25,11.15,96.07l6.1-2.39c2,5.08,23.1,5.31,51.64-5.9S112.75,62.05,110.75,57l6.09-2.39C121.63,66.76,97.54,83.57,71.28,93.88Z"/><line class="cls-2" x1="24.01" y1="91.02" x2="38.67" y2="85.27"/><line class="cls-2" x1="89.4" y1="65.36" x2="104.21" y2="59.54"/></svg>