<svg id="Layer_1" data-name="Layer 1" xmlns="http://www.w3.org/2000/svg" viewBox="0 0 128 128"><defs><style>.cls-1{fill:#44abe0;}</style></defs><title>Derelict Ship Orbital</title><path class="cls-1" d="M43.94,56.29l-.43,11.84-.11,3.06-1.21,33.74H39.84V49.55A26.22,26.22,0,0,0,43.94,56.29Z"/><path class="cls-1" d="M65.92,65.6l-.07,4.55,0,3-.63,38.5H62.83l-.63-38.5-.05-3-.07-4.55c.63.05,1.27.08,1.92.08S65.29,65.65,65.92,65.6Z"/><path class="cls-1" d="M88.16,49.55v55.38H85.81L84.6,71.19l-.11-3.06-.43-11.84A26.22,26.22,0,0,0,88.16,49.55Z"/><path class="cls-1" d="M89.76,44A22.81,22.81,0,0,1,89.07,47c8.17,2.41,13.35,6,13.35,10,0,4.15-5.56,7.84-14.26,10.26-1.17.32-2.39.63-3.67.89a95,95,0,0,1-18.64,2c-.61,0-1.23,0-1.85,0s-1.24,0-1.85,0a95,95,0,0,1-18.64-2c-1.28-.26-2.5-.57-3.67-.89C31.14,64.82,25.58,61.13,25.58,57c0-4,5.18-7.59,13.35-10A22.81,22.81,0,0,1,38.24,44C29,46.73,22.58,51.06,22.58,57c0,6.23,7.17,10.73,17.26,13.38,1.15.31,2.34.58,3.56.83a100.93,100.93,0,0,0,18.8,2c.6,0,1.2,0,1.8,0s1.2,0,1.8,0a100.93,100.93,0,0,0,18.8-2c1.22-.25,2.41-.52,3.56-.83,10.09-2.65,17.26-7.15,17.26-13.38C105.42,51.06,99,46.73,89.76,44Z"/><path class="cls-1" d="M88.16,39.51A24.16,24.16,0,1,1,57.09,16.35L54.88,20.7H65.46L61.65,33.3,68,34.63l5.86-3L79,38.31l2.85-6,5.93,3.17A24.87,24.87,0,0,1,88.16,39.51Z"/></svg>