<svg id="Layer_1" data-name="Layer 1" xmlns="http://www.w3.org/2000/svg" viewBox="0 0 128 128"><defs><style>.cls-1{fill:#42abe0;}.cls-2{fill:none;stroke:#42abe0;stroke-miterlimit:10;stroke-width:4.39px;}.cls-3{fill:#44abe0;}</style></defs><title>Derelict Ship Deep Space</title><path class="cls-1" d="M45.74,38.21a21.94,21.94,0,0,0-.55,2.4L25.57,24.05,27,22.37Z"/><line class="cls-2" x1="36.9" y1="10.63" x2="27.77" y2="21.45"/><line class="cls-2" x1="42.04" y1="14.96" x2="32.9" y2="25.78"/><line class="cls-2" x1="47.17" y1="19.3" x2="38.04" y2="30.12"/><line class="cls-2" x1="24.79" y1="24.97" x2="15.66" y2="35.79"/><line class="cls-2" x1="29.93" y1="29.31" x2="20.79" y2="40.12"/><line class="cls-2" x1="35.06" y1="33.64" x2="25.93" y2="44.46"/><path class="cls-3" d="M50.86,62l-.43,11.85-.11,3.06-1.21,33.73H46.76V55.26A25.88,25.88,0,0,0,50.86,62Z"/><path class="cls-3" d="M72.84,71.31l-.07,4.56,0,3-.63,38.5H69.75l-.63-38.5-.05-3L69,71.31c.63.06,1.27.08,1.92.08S72.21,71.37,72.84,71.31Z"/><path class="cls-3" d="M95.08,55.26v55.38H92.73L91.52,76.91l-.11-3.06L91,62A25.88,25.88,0,0,0,95.08,55.26Z"/><path class="cls-3" d="M96.68,49.75A22.43,22.43,0,0,1,96,52.69c8.17,2.42,13.35,6,13.35,10,0,4.15-5.56,7.85-14.26,10.26-1.17.33-2.39.63-3.67.9a95.76,95.76,0,0,1-18.64,2l-1.85,0-1.85,0a95.76,95.76,0,0,1-18.64-2c-1.28-.27-2.5-.57-3.67-.9-8.7-2.41-14.26-6.11-14.26-10.26,0-4,5.18-7.58,13.35-10a22.43,22.43,0,0,1-.69-2.94c-9.24,2.69-15.66,7-15.66,12.94,0,6.24,7.17,10.74,17.26,13.38,1.15.31,2.34.59,3.56.84a101.79,101.79,0,0,0,18.8,2c.6,0,1.2,0,1.8,0s1.2,0,1.8,0a101.79,101.79,0,0,0,18.8-2c1.22-.25,2.41-.53,3.56-.84,10.09-2.64,17.26-7.14,17.26-13.38C112.34,56.78,105.92,52.44,96.68,49.75Z"/><path class="cls-3" d="M95.08,45.23A24.16,24.16,0,1,1,64,22.06L61.8,26.42H72.38L68.57,39l6.33,1.33,5.86-3L86,44l2.85-6,5.93,3.18A24.78,24.78,0,0,1,95.08,45.23Z"/></svg>