<svg id="Layer_1" data-name="Layer 1" xmlns="http://www.w3.org/2000/svg" viewBox="0 0 128 128"><defs><style>.cls-1{fill:#44abe0;}</style></defs><title>Derelict Ship Planetside</title><path class="cls-1" d="M90.16,87.38v3.15c7.54,2.41,12.26,5.84,12.26,9.66,0,7.29-17.2,13.2-38.42,13.2s-38.42-5.91-38.42-13.2c0-3.82,4.72-7.25,12.26-9.66V87.38c-9,2.7-15.26,7-15.26,12.81,0,10.64,20.84,16.2,41.42,16.2s41.42-5.56,41.42-16.2C105.42,94.37,99.18,90.08,90.16,87.38Z"/><path class="cls-1" d="M43.94,51.55l-1.75,48.64H39.84V44.81A25.88,25.88,0,0,0,43.94,51.55Z"/><path class="cls-1" d="M65.92,60.86l-.75,46.06H62.83l-.75-46.06c.63.06,1.27.08,1.92.08S65.29,60.92,65.92,60.86Z"/><path class="cls-1" d="M84.06,51.55a25.88,25.88,0,0,0,4.1-6.74v55.38H85.81Z"/><path class="cls-1" d="M88.16,34.78A24.16,24.16,0,1,1,57.09,11.61L54.88,16H65.46L61.65,28.56,68,29.89l5.86-3,5.2,6.7,2.85-6,5.93,3.18A24.78,24.78,0,0,1,88.16,34.78Z"/></svg>