<svg id="Layer_1" data-name="Layer 1" xmlns="http://www.w3.org/2000/svg" viewBox="0 0 128 128"><defs><style>.cls-1{fill:#42abe0;}.cls-2{fill:none;stroke:#42abe0;stroke-linecap:round;stroke-miterlimit:10;stroke-width:3px;}</style></defs><title>Settlement Orbital</title><path class="cls-1" d="M96.42,48.62a32.8,32.8,0,0,1,.76,6.91c10.87,2.79,17,6.64,17,9.71,0,3.6-8.52,8.27-23.14,11-.89.17-1.8.33-2.74.49A151.93,151.93,0,0,1,64,78.62a151.93,151.93,0,0,1-24.35-1.85c-.94-.16-1.85-.32-2.74-.49-14.62-2.77-23.14-7.44-23.14-11,0-3.07,6.18-6.92,17.05-9.71a32.8,32.8,0,0,1,.76-6.91C17.39,51.85,7.23,57.43,7.23,65.24c0,9.32,14.51,15.48,33.06,18.25.92.14,1.84.27,2.78.39A165.91,165.91,0,0,0,64,85.17a165.91,165.91,0,0,0,20.93-1.29c.94-.12,1.86-.25,2.78-.39,18.55-2.77,33.06-8.93,33.06-18.25C120.77,57.43,110.61,51.85,96.42,48.62Z"/><path class="cls-1" d="M94.87,55a30.88,30.88,0,0,0-61.74,0c0,.23,0,.45,0,.68,0,5,2.7,12.72,6.53,21.11,1.06,2.33,2.21,4.72,3.42,7.11C50.86,99.39,60.89,115.35,64,120.21c3.11-4.86,13.14-20.82,20.93-36.33,1.21-2.39,2.36-4.78,3.42-7.11,3.83-8.39,6.53-16.09,6.53-21.11C94.88,55.43,94.88,55.21,94.87,55ZM64,77.83A22.52,22.52,0,1,1,86.52,55.31,22.52,22.52,0,0,1,64,77.83Z"/><rect class="cls-1" x="62" y="5.67" width="4" height="21.6"/><rect class="cls-1" x="70.55" y="11.94" width="4" height="15.33"/><rect class="cls-1" x="54" y="17.36" width="4" height="9.91"/><path class="cls-1" d="M64,85.17c-28.21,0-56.77-6.85-56.77-19.93h6.54c0,5.45,19.57,13.38,50.23,13.38s50.23-7.93,50.23-13.38h6.54C120.77,78.32,92.21,85.17,64,85.17Z"/><line class="cls-2" x1="21.04" y1="65.24" x2="36.79" y2="65.24"/><line class="cls-2" x1="91.28" y1="65.24" x2="107.2" y2="65.24"/></svg>