<svg id="Layer_1" data-name="Layer 1" xmlns="http://www.w3.org/2000/svg" viewBox="0 0 128 128"><defs><style>.cls-1{fill:#42abe0;}.cls-2,.cls-3,.cls-4{fill:none;stroke:#42abe0;stroke-miterlimit:10;}.cls-2{stroke-width:4px;}.cls-3{stroke-width:3px;}.cls-4{stroke-width:6px;}</style></defs><title>Settlement Deep Space</title><path class="cls-1" d="M94.87,55a30.88,30.88,0,0,0-61.74,0c0,.23,0,.45,0,.68,0,5,2.7,12.72,6.53,21.11,1.06,2.33,2.21,4.72,3.42,7.11C50.86,99.39,60.89,115.35,64,120.21c3.11-4.86,13.14-20.82,20.93-36.33,1.21-2.39,2.36-4.78,3.42-7.11,3.83-8.39,6.53-16.09,6.53-21.11C94.88,55.43,94.88,55.21,94.87,55ZM64,77.83A22.52,22.52,0,1,1,86.52,55.31,22.52,22.52,0,0,1,64,77.83Z"/><line class="cls-2" x1="72.55" y1="11.94" x2="72.55" y2="27.27"/><line class="cls-2" x1="56" y1="17.36" x2="56" y2="27.27"/><line class="cls-3" x1="117.12" y1="55.31" x2="86.52" y2="55.31"/><line class="cls-4" x1="117.12" y1="77.83" x2="117.12" y2="58.46"/><line class="cls-4" x1="107.93" y1="77.83" x2="107.93" y2="58.46"/><line class="cls-4" x1="98.74" y1="77.83" x2="98.74" y2="58.46"/><line class="cls-4" x1="117.12" y1="52.16" x2="117.12" y2="32.8"/><line class="cls-4" x1="107.93" y1="52.16" x2="107.93" y2="32.8"/><line class="cls-4" x1="98.74" y1="52.16" x2="98.74" y2="32.8"/><line class="cls-3" x1="10.88" y1="55.31" x2="41.48" y2="55.31"/><line class="cls-4" x1="10.88" y1="32.8" x2="10.88" y2="52.16"/><line class="cls-4" x1="20.07" y1="32.8" x2="20.07" y2="52.16"/><line class="cls-4" x1="29.26" y1="32.8" x2="29.26" y2="52.16"/><line class="cls-4" x1="10.88" y1="58.46" x2="10.88" y2="77.83"/><line class="cls-4" x1="20.07" y1="58.46" x2="20.07" y2="77.83"/><line class="cls-4" x1="29.26" y1="58.46" x2="29.26" y2="77.83"/><line class="cls-2" x1="64" y1="5.67" x2="64" y2="27.27"/></svg>