<svg id="Layer_1" data-name="Layer 1" xmlns="http://www.w3.org/2000/svg" viewBox="0 0 128 128"><defs><style>.cls-1{fill:#42abe0;}.cls-2{fill:#44abe0;}</style></defs><title>Settlement Planetside</title><path class="cls-1" d="M103.84,107.51c0,9.18-20,14-39.84,14s-39.84-4.8-39.84-14c0-7.66,13.94-12.27,30.05-13.59.93,1.57,1.83,3,2.66,4.41-17.38,1-28.12,5.79-28.12,9.18,0,3.83,13.73,9.39,35.25,9.39s35.25-5.56,35.25-9.39c0-3.39-10.75-8.14-28.12-9.18C72,97,72.86,95.49,73.8,93.92,89.91,95.24,103.84,99.85,103.84,107.51Z"/><path class="cls-2" d="M64,10A30.91,30.91,0,0,0,33.12,40.83c0,11.52,14.24,37.17,23.67,52.9,1,1.6,1.87,3.09,2.71,4.46,2,3.21,3.55,5.72,4.5,7.2,1-1.48,2.53-4,4.5-7.2.84-1.37,1.75-2.86,2.71-4.46C80.64,78,94.88,52.35,94.88,40.83A30.91,30.91,0,0,0,64,10ZM64,63A22.52,22.52,0,1,1,86.52,40.48,22.52,22.52,0,0,1,64,63Z"/></svg>