<svg id="Layer_1" data-name="Layer 1" xmlns="http://www.w3.org/2000/svg" viewBox="0 0 128 128"><defs><style>.cls-1{fill:#42abe0;}.cls-2{fill:#44abe0;}</style></defs><title>Vault Orbital</title><rect class="cls-1" x="31.45" y="98.16" width="2.44" height="13.19"/><rect class="cls-1" x="26.22" y="98.16" width="2.44" height="9.36"/><rect class="cls-1" x="36.33" y="98.16" width="2.44" height="6.05"/><rect class="cls-1" x="101.77" y="98.16" width="2.44" height="13.19"/><rect class="cls-1" x="96.55" y="98.16" width="2.44" height="9.36"/><rect class="cls-1" x="106.66" y="98.16" width="2.44" height="6.05"/><polygon class="cls-2" points="113.96 95.05 104.64 95.05 72.58 44.73 71.08 42.38 65.5 33.62 70.16 26.31 75.74 35.07 77.24 37.43 113.96 95.05"/><polygon class="cls-2" points="69.58 44.73 64 53.5 62.5 55.85 37.52 95.05 26.36 95.05 56.92 47.09 58.42 44.73 64 35.97 69.58 44.73"/><polygon class="cls-2" points="69.58 66.96 65.5 73.38 64 75.73 51.69 95.05 40.53 95.05 58.42 66.97 59.92 64.61 64 58.2 69.58 66.96"/><polygon class="cls-2" points="101.64 95.05 90.48 95.05 65.5 55.85 71.08 47.09 101.64 95.05"/><polygon class="cls-2" points="68.66 23.96 64 31.26 62.5 33.62 56.92 42.38 55.42 44.73 23.36 95.05 14.04 95.05 50.76 37.43 52.26 35.07 57.84 26.31 59.34 23.96 64 16.65 68.66 23.96"/></svg>