<svg id="Layer_1" data-name="Layer 1" xmlns="http://www.w3.org/2000/svg" viewBox="0 0 128 128"><defs><style>.cls-1{fill:#44abe0;}</style></defs><title>Vault Planetside</title><path class="cls-1" d="M120.9,93.88c0,11.67-28.93,18.64-56.9,18.64s-56.9-7-56.9-18.64c0-2.65,1.59-6.61,9.15-10.38.56-.27,1.15-.55,1.76-.82a1.33,1.33,0,0,1,.28-.1l-1.4,2.21-1.6,2.51C11.83,89.4,10,91.69,10,93.88c0,7.62,21.71,15.79,54,15.79s54-8.17,54-15.79c0-1.94-1.4-3.67-3.12-5.06l-1.93-3-1.51-2.37a1,1,0,0,1,.34.11c.72.36,1.34.7,1.9,1C118.48,87.32,120.9,90.46,120.9,93.88Z"/><polygon class="cls-1" points="114.58 93.88 105.26 93.88 73.2 43.55 71.7 41.2 66.12 32.45 70.78 25.14 76.36 33.9 77.86 36.26 114.58 93.88"/><polygon class="cls-1" points="70.2 43.55 64.62 52.33 63.12 54.67 38.14 93.88 26.98 93.88 57.54 45.91 59.04 43.55 64.62 34.8 70.2 43.55"/><polygon class="cls-1" points="70.2 65.78 66.12 72.2 64.62 74.56 52.31 93.88 41.15 93.88 59.04 65.8 60.54 63.44 64.62 57.02 70.2 65.78"/><polygon class="cls-1" points="102.26 93.88 91.1 93.88 66.12 54.67 71.7 45.91 102.26 93.88"/><polygon class="cls-1" points="69.28 22.79 64.62 30.09 63.12 32.45 57.54 41.2 56.04 43.55 23.98 93.88 14.66 93.88 51.38 36.26 52.88 33.9 58.46 25.14 59.96 22.79 64.62 15.47 69.28 22.79"/></svg>