<svg xmlns="http://www.w3.org/2000/svg" viewBox="0 0 512 512"><path d="M176 128.5a47.4 47.4 0 1 1-47.5-47.3 47.4 47.4 0 0 1 47.4 47.3zm206.5-47.3a47.4 47.4 0 1 0 47.3 47.3 47.4 47.4 0 0 0-47.3-47.3zm-254 127a47.4 47.4 0 1 0 47.4 47.3 47.4 47.4 0 0 0-47.4-47.4zm254 0a47.4 47.4 0 1 0 47.3 47.3 47.4 47.4 0 0 0-47.3-47.4zM128.4 335a47.4 47.4 0 1 0 47.4 47.4 47.4 47.4 0 0 0-47.4-47.4zm254 0a47.4 47.4 0 1 0 47.3 47.4 47.4 47.4 0 0 0-47.3-47.4zm102 93a56.5 56.5 0 0 1-56.5 56.4H84A56.5 56.5 0 0 1 27.5 428V84A56.5 56.5 0 0 1 84 27.5h344A56.5 56.5 0 0 1 484.5 84zm-20-344A36.5 36.5 0 0 0 428 47.4H84A36.5 36.5 0 0 0 47.5 84v344A36.5 36.5 0 0 0 84 464.5h344a36.5 36.5 0 0 0 36.5-36.5z"/></svg>
