<svg xml:space="preserve" style="clip-rule:evenodd;fill-rule:evenodd;stroke-linejoin:round;stroke-miterlimit:2" xmlns="http://www.w3.org/2000/svg" viewBox="0 0 30.57 35.797"><path d="m27.74 33.475-1.675-4.91a17.031 17.031 0 0 1-10.78 3.83A17.02 17.02 0 0 1 4.607 28.64l-1.649 4.835a1.287 1.287 0 0 0-.073.582 2.04 2.04 0 0 0 2.017 1.74h20.894a2.04 2.04 0 0 0 2.017-1.74 1.26 1.26 0 0 0-.073-.582zm-1.645-29c5.967 5.966 5.967 15.654 0 21.62-5.966 5.967-15.654 5.967-21.62 0-5.967-5.966-5.967-15.654 0-21.62 5.966-5.967 15.654-5.967 21.62 0zM15.56 15.1c3.898 3.9 4.697 9.43 1.782 12.345-2.915 2.915-8.446 2.116-12.345-1.782C1.1 21.763.3 16.232 3.215 13.317c2.915-2.915 8.446-2.116 12.345 1.782zm3.501-8.227 2.143-.793.794-2.144a.905.905 0 0 1 1.7 0l.793 2.144 2.144.793a.907.907 0 0 1 0 1.7l-2.144.794-.793 2.143a.907.907 0 0 1-1.7 0l-.793-2.143-2.144-.794a.907.907 0 0 1 0-1.7z"/></svg>